<?xml version="1.0" encoding="UTF-8"?>
<svg width="539px" height="350px" viewBox="0 0 539 350" version="1.1" xmlns="http://www.w3.org/2000/svg" xmlns:xlink="http://www.w3.org/1999/xlink">
    <title>1. command - left</title>
    <g id="Page-1" stroke="none" stroke-width="1" fill="none" fill-rule="evenodd">
        <g id="1.-command---left">
            <rect id="1.5u" fill="#FFFFFF" x="0" y="9.9475983e-14" width="539" height="350"></rect>
            <path d="M405.34375,218.09375 C413.984375,218.09375 420.984375,211.09375 420.984375,202.398438 C420.984375,193.703125 413.984375,186.921875 405.34375,186.921875 L397.359375,186.921875 L397.359375,168.164063 L405.34375,168.164063 C413.984375,168.164063 420.984375,161.382813 420.984375,152.6875 C420.984375,143.992188 413.984375,136.992188 405.34375,136.992188 C396.703125,136.992188 389.703125,143.992188 389.703125,152.6875 L389.703125,160.671875 L371.21875,160.671875 L371.21875,152.6875 C371.21875,143.992188 364.21875,136.992188 355.578125,136.992188 C346.9375,136.992188 339.9375,143.992188 339.9375,152.6875 C339.9375,161.382813 346.9375,168.164063 355.578125,168.164063 L363.617188,168.164063 L363.617188,186.921875 L355.578125,186.921875 C346.9375,186.921875 339.9375,193.703125 339.9375,202.398438 C339.9375,211.09375 346.9375,218.09375 355.578125,218.09375 C364.21875,218.09375 371.21875,211.09375 371.21875,202.398438 L371.21875,194.414063 L389.703125,194.414063 L389.703125,202.398438 C389.703125,211.09375 396.703125,218.09375 405.34375,218.09375 Z M363.617188,160.78125 L355.578125,160.78125 C351.203125,160.78125 347.539062,157.117188 347.539062,152.6875 C347.539062,148.257813 351.203125,144.648438 355.578125,144.648438 C359.953125,144.648438 363.617188,148.257813 363.617188,152.6875 L363.617188,160.78125 Z M405.34375,160.78125 L397.359375,160.78125 L397.359375,152.6875 C397.359375,148.257813 400.96875,144.648438 405.34375,144.648438 C409.71875,144.648438 413.382812,148.257813 413.382812,152.6875 C413.382812,157.117188 409.71875,160.78125 405.34375,160.78125 Z M389.703125,187.03125 L371.21875,187.03125 L371.21875,168.054688 L389.703125,168.054688 L389.703125,187.03125 Z M355.578125,210.382813 C351.203125,210.382813 347.539062,206.773438 347.539062,202.34375 C347.539062,197.914063 351.203125,194.25 355.578125,194.25 L363.617188,194.25 L363.617188,202.34375 C363.617188,206.773438 359.953125,210.382813 355.578125,210.382813 Z M405.34375,210.382813 C400.96875,210.382813 397.359375,206.773438 397.359375,202.34375 L397.359375,194.25 L405.34375,194.25 C409.71875,194.25 413.382812,197.914063 413.382812,202.34375 C413.382812,206.773438 409.71875,210.382813 405.34375,210.382813 Z" id="⌘" fill="#000000" fill-rule="nonzero"></path>
        </g>
    </g>
</svg>