<?xml version="1.0" encoding="UTF-8"?>
<svg width="539px" height="350px" viewBox="0 0 539 350" version="1.1" xmlns="http://www.w3.org/2000/svg" xmlns:xlink="http://www.w3.org/1999/xlink">
    <title>2. option - left</title>
    <g id="Page-1" stroke="none" stroke-width="1" fill="none" fill-rule="evenodd">
        <g id="2.-option---left">
            <rect id="1.5u" fill="#FFFFFF" x="0" y="9.9475983e-14" width="539" height="350"></rect>
            <path d="M415.625,216.78125 C418.195312,216.78125 420.273438,214.8125 420.273438,212.351563 C420.273438,209.890625 418.195312,207.867188 415.625,207.867188 L415.625,207.867188 L397.414062,207.867188 C395.71875,207.867188 394.679688,207.265625 394.023438,205.84375 L394.023438,205.84375 L366.679688,143.9375 C365.148438,140.382813 361.921875,138.304688 358.039062,138.304688 L358.039062,138.304688 L337.585938,138.304688 C334.960938,138.304688 332.9375,140.21875 332.9375,142.734375 C332.9375,145.25 334.960938,147.21875 337.585938,147.21875 L337.585938,147.21875 L355.851562,147.21875 C357.328125,147.21875 358.367188,147.820313 359.023438,149.242188 L359.023438,149.242188 L386.476562,211.148438 C388.171875,215.085938 390.90625,216.78125 395.0625,216.78125 L395.0625,216.78125 L415.625,216.78125 Z M415.625,147.109375 C418.25,147.109375 420.21875,145.195313 420.21875,142.679688 C420.21875,140.164063 418.25,138.304688 415.625,138.304688 L415.625,138.304688 L389.101562,138.304688 C386.476562,138.304688 384.507812,140.164063 384.507812,142.679688 C384.507812,145.195313 386.476562,147.109375 389.101562,147.109375 L389.101562,147.109375 L415.625,147.109375 Z" id="⌥" fill="#000000" fill-rule="nonzero"></path>
        </g>
    </g>
</svg>