<?xml version="1.0" encoding="UTF-8"?>
<svg width="308px" height="350px" viewBox="0 0 308 350" version="1.1" xmlns="http://www.w3.org/2000/svg" xmlns:xlink="http://www.w3.org/1999/xlink">
    <title>4. return</title>
    <g id="Page-1" stroke="none" stroke-width="1" fill="none" fill-rule="evenodd">
        <g id="4.-return">
            <rect id="1u" fill="#FFFFFF" x="0" y="0" width="308" height="350"></rect>
            <path d="M132.398438,207.15625 L132.398438,187.578125 L173.523438,187.578125 C180.632812,187.578125 186.684896,185.071615 191.679688,180.058594 C196.674479,175.045573 199.171875,169.002604 199.171875,161.929688 C199.171875,154.856771 196.674479,148.813802 191.679688,143.800781 C186.684896,138.78776 180.632812,136.28125 173.523438,136.28125 L173.523438,136.28125 L172.210938,136.28125 L172.210938,144.375 L173.523438,144.375 C178.408854,144.375 182.55599,146.088542 185.964844,149.515625 C189.373698,152.942708 191.078125,157.080729 191.078125,161.929688 C191.078125,166.778646 189.373698,170.916667 185.964844,174.34375 C182.55599,177.770833 178.408854,179.484375 173.523438,179.484375 L173.523438,179.484375 L132.398438,179.484375 L132.398438,159.90625 L108.773438,183.53125 L132.398438,207.15625 Z" id="↩" fill="#000000" fill-rule="nonzero"></path>
        </g>
    </g>
</svg>