<?xml version="1.0" encoding="UTF-8"?>
<svg width="308px" height="350px" viewBox="0 0 308 350" version="1.1" xmlns="http://www.w3.org/2000/svg" xmlns:xlink="http://www.w3.org/1999/xlink">
    <title>6. delete</title>
    <g id="Page-1" stroke="none" stroke-width="1" fill="none" fill-rule="evenodd">
        <g id="6.-delete">
            <rect id="1u" fill="#FFFFFF" x="0" y="0" width="308" height="350"></rect>
            <path d="M186.921875,217.4375 C196.164062,217.4375 200.867188,212.84375 200.867188,203.65625 L200.867188,151.484375 C200.867188,142.296875 196.164062,137.703125 186.921875,137.703125 L149.296875,137.703125 C144.15625,137.703125 139.617188,139.179688 135.953125,143.007812 L111.015625,169.09375 C108.117188,172.101562 106.75,174.78125 106.75,177.515625 C106.75,180.25 108.0625,182.929688 111.015625,185.9375 L136.007812,212.023438 C139.671875,215.851562 144.210938,217.382812 149.351562,217.382812 L186.921875,217.4375 Z M186.8125,209.507812 L149.1875,209.507812 C146.015625,209.507812 144.101562,208.90625 141.96875,206.664062 L117.140625,180.796875 C115.773438,179.375 115.390625,178.445312 115.390625,177.515625 C115.390625,176.585938 115.828125,175.65625 117.140625,174.234375 L141.914062,148.421875 C144.046875,146.179688 146.015625,145.632812 149.132812,145.632812 L186.8125,145.632812 C190.75,145.632812 192.9375,147.765625 192.9375,151.867188 L192.9375,203.273438 C192.9375,207.429688 190.75,209.507812 186.8125,209.507812 Z M176.148438,195.945312 C178.335938,195.945312 180.03125,194.140625 180.03125,191.953125 C180.03125,190.859375 179.648438,189.984375 178.882812,189.21875 L167.234375,177.570312 L178.9375,165.8125 C179.757812,165.046875 180.085938,164.171875 180.085938,163.132812 C180.085938,160.945312 178.390625,159.25 176.203125,159.25 C175.21875,159.25 174.34375,159.578125 173.578125,160.398438 L161.710938,172.15625 L149.953125,160.453125 C149.242188,159.6875 148.367188,159.359375 147.328125,159.359375 C145.140625,159.359375 143.390625,161 143.390625,163.1875 C143.390625,164.226562 143.828125,165.15625 144.59375,165.867188 L156.242188,177.570312 L144.59375,189.273438 C143.828125,189.984375 143.390625,190.914062 143.390625,191.953125 C143.390625,194.140625 145.140625,195.945312 147.328125,195.945312 C148.367188,195.945312 149.351562,195.507812 150.0625,194.742188 L161.710938,183.039062 L173.414062,194.742188 C174.070312,195.453125 175.054688,195.945312 176.148438,195.945312 Z" id="⌫" fill="#000000" fill-rule="nonzero"></path>
        </g>
    </g>
</svg>