<?xml version="1.0" encoding="UTF-8"?>
<svg width="308px" height="350px" viewBox="0 0 308 350" version="1.1" xmlns="http://www.w3.org/2000/svg" xmlns:xlink="http://www.w3.org/1999/xlink">
    <title>10. caps lock</title>
    <g id="Page-1" stroke="none" stroke-width="1" fill="none" fill-rule="evenodd">
        <g id="10.-caps-lock">
            <rect id="1u" fill="#FFFFFF" x="0" y="0" width="308" height="350"></rect>
            <path d="M166.803437,195.398438 C173.31125,195.398438 176.647187,191.625 176.647187,185.554688 L176.647187,179.046875 L192.287812,179.046875 C196.225312,179.046875 199.397187,176.695312 199.397187,173.085938 C199.397187,170.84375 198.24875,169.148438 196.115937,167.289062 L159.584687,135.132812 C157.944062,133.65625 156.139375,132.507812 154.06125,132.507812 C151.983125,132.507812 150.233125,133.65625 148.5925,135.132812 L112.06125,167.34375 C109.819062,169.3125 108.78,170.84375 108.78,173.085938 C108.78,176.695312 111.951875,179.046875 115.889375,179.046875 L131.475312,179.046875 L131.475312,185.554688 C131.475312,191.625 134.865937,195.398438 141.37375,195.398438 L166.803437,195.398438 Z M165.983125,188.015625 L142.194062,188.015625 C140.7175,188.015625 139.678437,186.976562 139.678437,185.554688 L139.678437,173.195312 C139.678437,172.101562 139.240937,171.664062 138.201875,171.664062 L119.772187,171.664062 C119.553437,171.664062 119.444062,171.554688 119.444062,171.390625 C119.444062,171.28125 119.49875,171.171875 119.608125,171.0625 L153.514375,141.695312 C153.678437,141.53125 153.897187,141.476562 154.06125,141.476562 C154.28,141.476562 154.444062,141.53125 154.608125,141.695312 L188.569062,171.0625 C188.678437,171.171875 188.733125,171.28125 188.733125,171.390625 C188.733125,171.554688 188.62375,171.664062 188.405,171.664062 L169.975312,171.664062 C168.881562,171.664062 168.49875,172.101562 168.49875,173.195312 L168.49875,185.554688 C168.49875,186.921875 167.405,188.015625 165.983125,188.015625 Z M168.444062,224.109375 C173.74875,224.109375 176.756562,221.15625 176.756562,215.742188 L176.756562,209.289062 C176.756562,203.875 173.74875,200.921875 168.444062,200.921875 L139.350312,200.921875 C133.990937,200.921875 130.983125,203.929688 130.983125,209.289062 L130.983125,215.742188 C130.983125,221.101562 133.990937,224.109375 139.350312,224.109375 L168.444062,224.109375 Z M167.240937,217.21875 L140.49875,217.21875 C139.076875,217.21875 138.365937,216.453125 138.365937,215.03125 L138.365937,210 C138.365937,208.578125 139.076875,207.757812 140.49875,207.757812 L167.240937,207.757812 C168.662812,207.757812 169.428437,208.578125 169.428437,210 L169.428437,215.03125 C169.428437,216.453125 168.662812,217.21875 167.240937,217.21875 Z" id="⇪" fill="#000000" fill-rule="nonzero"></path>
        </g>
    </g>
</svg>