<?xml version="1.0" encoding="UTF-8"?>
<svg width="539px" height="350px" viewBox="0 0 539 350" version="1.1" xmlns="http://www.w3.org/2000/svg" xmlns:xlink="http://www.w3.org/1999/xlink">
    <title>3. control - left</title>
    <g id="Page-1" stroke="none" stroke-width="1" fill="none" fill-rule="evenodd">
        <g id="3.-control---left">
            <rect id="1.5u" fill="#FFFFFF" x="0" y="9.9475983e-14" width="539" height="350"></rect>
            <path d="M418.742188,179.921875 C421.3125,179.921875 423.226562,178.007813 423.226562,175.4375 C423.226562,174.179688 422.734375,173.085938 421.914062,172.210938 L421.914062,172.210938 L388.335938,138.414063 C387.515625,137.539063 386.3125,137.046875 385.109375,137.046875 C383.851562,137.046875 382.757812,137.539063 381.882812,138.414063 L381.882812,138.414063 L348.25,172.210938 C347.429688,173.085938 346.9375,174.179688 346.9375,175.4375 C346.9375,178.007813 348.90625,179.921875 351.476562,179.921875 C352.734375,179.921875 353.828125,179.429688 354.648438,178.609375 L354.648438,178.609375 L385.109375,148.09375 L415.515625,178.609375 C416.335938,179.429688 417.539062,179.921875 418.742188,179.921875 Z" id="⌃" fill="#000000" fill-rule="nonzero"></path>
        </g>
    </g>
</svg>