<?xml version="1.0" encoding="UTF-8"?>
<svg width="308px" height="350px" viewBox="0 0 308 350" version="1.1" xmlns="http://www.w3.org/2000/svg" xmlns:xlink="http://www.w3.org/1999/xlink">
    <title>5. esc</title>
    <g id="Page-1" stroke="none" stroke-width="1" fill="none" fill-rule="evenodd">
        <g id="5.-esc" transform="translate(0.000000, 0.000000)">
            <rect id="1u" fill="#FFFFFF" x="0" y="0" width="308" height="350"></rect>
            <path d="M156.734375,221.648438 C180.851562,221.648438 200.921875,201.632813 200.921875,177.515625 C200.921875,153.398438 181.179687,134.09375 158.046875,133.4375 C155.203125,133.328125 153.015625,134.914063 153.015625,137.429688 C153.015625,139.617188 154.601562,141.585938 157.445312,141.640625 C177.1875,142.460938 192.5,157.609375 192.554687,177.515625 C192.609375,197.421875 176.640625,213.335938 156.734375,213.335938 C135.84375,213.335938 121.023437,196.382813 121.023437,177.351563 C121.023437,174.507813 118.945312,172.921875 116.757812,172.921875 C114.242187,172.921875 112.65625,175.164063 112.65625,178.007813 C112.710937,201.523438 132.671875,221.648438 156.734375,221.648438 Z M153.34375,179.648438 C155.859375,179.648438 157.71875,177.789063 157.71875,175.328125 C157.71875,174.179688 157.171875,173.03125 156.296875,172.15625 L135.1875,151.046875 L126.4375,143.335938 C130.265625,143.973958 134.853299,144.042318 137.099031,144.047381 L138.140625,144.046875 L138.140625,144.046875 C140.328125,144.046875 142.078125,142.242188 142.078125,140.054688 C142.078125,137.8125 140.328125,136.0625 138.140625,136.0625 L119.21875,136.0625 C115.992187,136.0625 114.1875,137.8125 114.1875,141.09375 L114.1875,159.90625 C114.1875,162.09375 115.992187,163.898438 118.125,163.898438 C120.3125,163.898438 122.0625,162.09375 122.0625,159.90625 L122.060708,159.016116 C122.050851,156.81851 121.986779,151.774639 121.570312,148.257813 L129.171875,157.117188 L150.226562,178.226563 C151.210937,179.15625 152.25,179.648438 153.34375,179.648438 Z" id="⎋" fill="#000000" fill-rule="nonzero"></path>
        </g>
    </g>
</svg>