<?xml version="1.0" encoding="UTF-8"?>
<svg width="308px" height="350px" viewBox="0 0 308 350" version="1.1" xmlns="http://www.w3.org/2000/svg" xmlns:xlink="http://www.w3.org/1999/xlink">
    <title>8. shift - left</title>
    <g id="Page-1" stroke="none" stroke-width="1" fill="none" fill-rule="evenodd">
        <g id="8.-shift---left">
            <rect id="1u" fill="#FFFFFF" x="0" y="0" width="308" height="350"></rect>
            <path d="M166.753125,217.4375 C173.260938,217.4375 176.596875,213.664062 176.596875,207.59375 L176.596875,189.109375 L193.33125,189.109375 C197.159375,189.109375 200.221875,186.757812 200.221875,183.148438 C200.221875,180.90625 199.128125,179.320312 197.432813,177.570312 L159.534375,139.835938 C157.948438,138.304688 156.089063,137.265625 154.010938,137.265625 C151.932813,137.265625 150.073438,138.304688 148.4875,139.835938 L110.64375,177.570312 C108.784375,179.429688 107.8,180.90625 107.8,183.148438 C107.8,186.757812 110.8625,189.109375 114.690625,189.109375 L131.425,189.109375 L131.425,207.59375 C131.425,213.664062 134.760938,217.4375 141.26875,217.4375 L166.753125,217.4375 Z M165.932813,209.835938 L142.089063,209.835938 C140.667188,209.835938 139.628125,208.851562 139.628125,207.375 L139.628125,183.203125 C139.628125,182.164062 139.190625,181.726562 138.096875,181.726562 L118.682813,181.726562 C118.464063,181.726562 118.354688,181.617188 118.354688,181.453125 C118.354688,181.34375 118.409375,181.234375 118.51875,181.070312 L153.464063,146.453125 C153.628125,146.289062 153.846875,146.234375 154.010938,146.234375 C154.229688,146.234375 154.39375,146.289062 154.557813,146.453125 L189.503125,181.070312 C189.6125,181.234375 189.721875,181.34375 189.721875,181.453125 C189.721875,181.617188 189.557813,181.726562 189.39375,181.726562 L169.925,181.726562 C168.83125,181.726562 168.39375,182.164062 168.39375,183.203125 L168.39375,207.375 C168.39375,208.796875 167.354688,209.835938 165.932813,209.835938 Z" id="⇧" fill="#000000" fill-rule="nonzero"></path>
        </g>
    </g>
</svg>